<?xml version="1.0" encoding="UTF-8"?>
<svg version="1.1" xmlns="http://www.w3.org/2000/svg" width="1536" height="1024">
<path d="M0 0 C506.88 0 1013.76 0 1536 0 C1536 337.92 1536 675.84 1536 1024 C1029.12 1024 522.24 1024 0 1024 C0 686.08 0 348.16 0 0 Z " fill="#0F0F0F" transform="translate(0,0)"/>
<path d="M0 0 C0.89734863 0.1453418 1.79469727 0.29068359 2.71923828 0.44042969 C43.96865802 7.23062495 79.94733729 26.31725923 110 55 C110.80179688 55.76054687 111.60359375 56.52109375 112.4296875 57.3046875 C137.78153106 81.95474992 157.1757209 117.18805243 164 152 C164.13535156 152.67820801 164.27070312 153.35641602 164.41015625 154.05517578 C170.81105559 187.43644251 167.3480381 221.85810388 157 254 C156.63865967 255.14154541 156.63865967 255.14154541 156.27001953 256.30615234 C150.90124441 272.91933374 142.23145019 288.89050014 132 303 C131.34 303.94359375 130.68 304.8871875 130 305.859375 C123.72504104 314.57972238 116.46415725 322.29577396 109 330 C108.163479 330.88026855 108.163479 330.88026855 107.31005859 331.77832031 C105.91259172 333.22450155 104.46059923 334.61760942 103 336 C102.34 336 101.68 336 101 336 C101 336.66 101 337.32 101 338 C62.38659571 372.80059058 9.82100076 386.1642675 -41 384 C-61.61581054 382.7389027 -81.98771478 378.9011313 -101.04345703 370.7409668 C-104.8196261 369.17456746 -107.11562177 368.62940452 -111 370 C-113.1562405 371.06389703 -115.27769959 372.19916796 -117.375 373.375 C-123.7675308 376.88952567 -130.27552846 380.08097558 -136.875 383.1875 C-147.46504658 388.18945708 -157.84729665 393.54258719 -168.21875 398.98046875 C-174.33440241 402.1853828 -180.49129905 405.29794865 -186.6875 408.34375 C-188.77124996 409.38562498 -190.8374291 410.464227 -192.875 411.59375 C-198.31246081 414.5777224 -202.76227038 416.1487304 -209 415 C-212.23300086 413.52406483 -214.72160787 411.73407055 -217 409 C-219.97742777 400.06771668 -216.97794375 393.64920386 -212.98754883 385.61303711 C-212.0391759 383.70302555 -211.11185309 381.7840069 -210.18945312 379.86132812 C-209.19564455 377.79032362 -208.20057542 375.72002909 -207.19937134 373.65258789 C-203.39338197 365.78867448 -199.7454931 357.85324302 -196.10592651 349.91125488 C-195.02819771 347.56147954 -193.94631945 345.2136557 -192.86352539 342.86621094 C-191.20517239 339.26642564 -189.56122407 335.66040245 -187.92871094 332.04882812 C-187.30819051 330.67989873 -186.68381968 329.31270834 -186.05566406 327.94726562 C-185.17154265 326.02184566 -184.30265972 324.09024939 -183.4375 322.15625 C-182.94121094 321.06119141 -182.44492187 319.96613281 -181.93359375 318.83789062 C-180.96153301 315.88307 -180.77931571 314.80281501 -182 312 C-183.61947404 309.67200607 -185.27041672 307.43019588 -187 305.1875 C-205.52381976 280.4981229 -217.72323282 252.40772362 -223 222 C-223.19698486 220.8872168 -223.19698486 220.8872168 -223.39794922 219.75195312 C-227.31744187 196.33394657 -226.23128059 171.06007378 -221 148 C-220.82339844 147.19997559 -220.64679687 146.39995117 -220.46484375 145.57568359 C-214.0065596 117.23697195 -199.32906565 91.26928706 -181 69 C-180.25621094 68.07058594 -179.51242187 67.14117187 -178.74609375 66.18359375 C-172.04922515 57.85500083 -165.12839016 50.91960585 -156.78515625 44.23828125 C-155.1043699 42.88752308 -153.43980491 41.51569587 -151.80859375 40.10546875 C-111.48455901 5.84085962 -51.88399809 -9.02622544 0 0 Z " fill="#FCFCFC" transform="translate(798,298)"/>
<path d="M0 0 C25.65176136 -0.64834122 51.60462509 5.1161324 74.6796875 16.16015625 C75.47117187 16.5380127 76.26265625 16.91586914 77.078125 17.30517578 C92.97259725 25.01772411 108.88819701 34.83833171 121.6796875 47.16015625 C121.6796875 47.82015625 121.6796875 48.48015625 121.6796875 49.16015625 C122.24558594 49.39347656 122.81148437 49.62679687 123.39453125 49.8671875 C147.68860756 63.61306657 163.67802135 105.02092777 170.6796875 130.16015625 C181.54202165 170.32230882 173.88357361 215.36862642 153.49951172 251.23681641 C145.87465782 264.24961788 137.04812021 276.18737045 126.6796875 287.16015625 C125.66455078 288.23716797 125.66455078 288.23716797 124.62890625 289.3359375 C121.14970946 292.93038719 121.14970946 292.93038719 119.6796875 294.16015625 C119.0196875 294.16015625 118.3596875 294.16015625 117.6796875 294.16015625 C117.3496875 295.15015625 117.0196875 296.14015625 116.6796875 297.16015625 C102.62828119 310.60528361 77.49175957 326.9662055 58.015625 329.5078125 C55.6796875 329.16015625 55.6796875 329.16015625 54.0546875 327.6484375 C47.85990047 317.84589098 44.24913202 308.8781344 44.1796875 297.22265625 C44.17026123 296.01536865 44.17026123 296.01536865 44.16064453 294.78369141 C44.29683667 288.45141799 45.84816115 284.28087097 50.0546875 279.41015625 C53.20066722 276.71360221 55.79874546 275.14131543 60.01953125 275.18359375 C61.30537109 275.35761719 61.30537109 275.35761719 62.6171875 275.53515625 C68.70785547 276.15634378 74.7497705 276.34991631 80.8671875 276.41015625 C81.79329834 276.43126465 82.71940918 276.45237305 83.67358398 276.47412109 C91.30244663 276.51359598 97.48363743 275.15014969 103.9921875 271.09765625 C110.3634258 264.13374462 110.9231599 257.44212411 110.6171875 248.34765625 C110.53186768 247.11088135 110.53186768 247.11088135 110.44482422 245.84912109 C110.15711685 239.73751913 110.15711685 239.73751913 113.17578125 236.40234375 C114.41521484 235.29246094 114.41521484 235.29246094 115.6796875 234.16015625 C116.16908402 231.63144618 116.16908402 231.63144618 115.8046875 229.09765625 C115.40125255 224.87460326 116.01112781 223.42480979 118.6796875 220.16015625 C118.58661395 216.62336121 117.61849747 215.07377033 115.5546875 212.16015625 C113.6796875 209.16015625 113.6796875 209.16015625 113.6796875 206.47265625 C115.2103239 202.93305957 117.6294931 201.58156127 121.15234375 200.16796875 C122.00699219 199.87664062 122.86164063 199.5853125 123.7421875 199.28515625 C126.81249148 198.07605424 128.51145438 197.32838937 130.8671875 194.97265625 C132.23095739 190.25191432 131.91981549 185.46511472 129.56567383 181.08959961 C128.11607653 179.06016339 126.58774547 177.13927742 124.9921875 175.22265625 C123.89153634 173.82396614 122.79385584 172.42293306 121.69921875 171.01953125 C120.911521 170.02083008 120.911521 170.02083008 120.10791016 169.00195312 C110.6823225 156.84697308 108.06933359 143.4077101 107.03442383 128.36694336 C105.027778 99.81115778 96.89927588 76.08407157 74.8671875 56.68359375 C51.32516137 38.0674807 21.16670281 31.58839959 -8.3203125 34.16015625 C-36.73151385 38.35795688 -63.9614275 50.66536753 -81.734375 73.87109375 C-85.02928359 78.15422587 -85.02928359 78.15422587 -86.3203125 83.16015625 C-84.051331 85.35811458 -81.4407 87.12668749 -78.8828125 88.97265625 C-78.19509766 89.51341797 -77.50738281 90.05417969 -76.79882812 90.61132812 C-72.76261953 93.5270159 -72.76261953 93.5270159 -67.95263672 93.91943359 C-64.63906439 92.86758221 -61.93473852 91.60885835 -59.11987305 89.55322266 C-55.13748513 87.5715792 -51.63605953 87.79418845 -47.25 87.859375 C-45.44791302 87.85172755 -43.64582946 87.84323673 -41.84375 87.83398438 C-39.02641783 87.83618465 -36.20977875 87.84751386 -33.39257812 87.87524414 C-17.75641192 88.33352121 -17.75641192 88.33352121 -4.3203125 81.16015625 C-3.36433208 79.08219726 -2.97298717 77.44490515 -2.69140625 75.18359375 C-1.84671212 70.57778787 1.48748391 67.186776 4.9296875 64.22265625 C9.6375862 62.40369539 14.07090003 62.34720663 18.8984375 63.8515625 C23.66118373 65.97524972 26.43935855 68.32104572 28.6796875 73.16015625 C29.79398751 77.91140766 30.11753416 81.79510489 28.6171875 86.47265625 C25.27638252 91.10667607 21.26125088 94.66266364 15.6796875 96.16015625 C10.26868498 96.65206557 7.44467663 95.54265081 2.6796875 93.16015625 C-1.37542294 93.53675025 -4.11212973 95.04962477 -7.5078125 97.22265625 C-12.11795956 100.16015625 -12.11795956 100.16015625 -14.3203125 100.16015625 C-14.2171875 101.04703125 -14.1140625 101.93390625 -14.0078125 102.84765625 C-14.3203125 106.16015625 -14.3203125 106.16015625 -16.5078125 109.03515625 C-19.3203125 111.16015625 -19.3203125 111.16015625 -21.8828125 111.72265625 C-25.17971843 110.9618318 -26.36507513 109.91197181 -28.3203125 107.16015625 C-28.38727246 105.16127747 -28.39423456 103.15878967 -28.3203125 101.16015625 C-32.8215736 101.15385952 -37.31966676 101.21371743 -41.8203125 101.28515625 C-43.08875 101.28257812 -44.3571875 101.28 -45.6640625 101.27734375 C-46.9015625 101.303125 -48.1390625 101.32890625 -49.4140625 101.35546875 C-50.54521484 101.36594238 -51.67636719 101.37641602 -52.84179688 101.38720703 C-56.42076263 102.18247694 -57.396345 102.87870708 -60.08520508 105.16674805 C-64.8728978 109.0193944 -69.01506192 108.97582345 -74.98828125 108.859375 C-76.48504143 108.86926201 -76.48504143 108.86926201 -78.01203918 108.87934875 C-81.17798907 108.89674332 -84.34195764 108.87490445 -87.5078125 108.84765625 C-90.68397938 108.83634289 -93.85956368 108.83371096 -97.03572083 108.84809875 C-99.00568723 108.85546638 -100.97578904 108.84733671 -102.94560242 108.82170105 C-107.86261157 108.82405312 -111.37443394 108.85266321 -115.3203125 112.16015625 C-116.44307754 114.78893786 -116.52637172 117.32111816 -116.3203125 120.16015625 C-114.64486724 123.42727451 -113.83687949 123.98796725 -110.3203125 125.16015625 C-106.04814611 125.38727102 -101.7737711 125.38840762 -97.49633789 125.40039062 C-95.39364203 125.41010621 -93.29192014 125.44114755 -91.18945312 125.47265625 C-89.84896412 125.47918599 -88.50846815 125.48443658 -87.16796875 125.48828125 C-85.3427771 125.5022998 -85.3427771 125.5022998 -83.48071289 125.51660156 C-80.05221832 125.12991929 -78.8616317 124.38161171 -76.3203125 122.16015625 C-73.8203125 121.66015625 -73.8203125 121.66015625 -71.3203125 122.16015625 C-69.21373558 124.38376522 -67.68769816 126.42538493 -66.3203125 129.16015625 C-55.01802599 129.47187485 -43.71556477 129.74698304 -32.41116333 129.97033691 C-27.46306692 130.06902098 -22.51591193 130.17850989 -17.56884766 130.3203125 C-13.08131753 130.44861229 -8.59431878 130.54293573 -4.10549927 130.61206055 C-2.42509943 130.64393986 -0.74488595 130.68823055 0.93484497 130.74536133 C9.9101539 131.34755327 9.9101539 131.34755327 18.17797852 128.61914062 C20.05751192 126.80281509 20.05751192 126.80281509 21.41918945 124.8203125 C23.61925636 121.92268418 26.21744612 121.64608487 29.6796875 121.16015625 C34.64423668 121.18863359 38.70953355 122.07225873 42.6796875 125.16015625 C47.294365 130.41576118 48.03811419 133.50638765 47.95703125 140.3984375 C47.5657872 144.29434661 46.32465271 146.306378 43.6796875 149.16015625 C38.84032611 152.81436791 35.02404576 154.57978937 28.875 154.51171875 C23.91385673 153.71722961 19.99754757 150.6015657 16.6796875 146.97265625 C15.6796875 145.16015625 15.6796875 145.16015625 15.6796875 143.16015625 C-0.94031922 143.06673902 -17.56024086 142.99618999 -34.18044662 142.95290756 C-41.89740522 142.93227712 -49.61420075 142.90414752 -57.33105469 142.85839844 C-64.05661764 142.81854517 -70.78206251 142.79272694 -77.50774026 142.78380227 C-81.06941358 142.77858487 -84.63074905 142.76631272 -88.19231415 142.73723602 C-92.16701111 142.70504934 -96.14137673 142.70419588 -100.11621094 142.70605469 C-101.88998108 142.68448303 -101.88998108 142.68448303 -103.69958496 142.66247559 C-105.32335052 142.67072357 -105.32335052 142.67072357 -106.97991943 142.67913818 C-107.92014828 142.67545101 -108.86037712 142.67176384 -109.82909775 142.66796494 C-113.10518055 143.31522327 -114.27739754 144.56657937 -116.3203125 147.16015625 C-117.24146868 150.77898409 -117.50607898 153.32420707 -116.6953125 156.97265625 C-114.94634811 159.75509959 -113.40508582 160.21099523 -110.3203125 161.16015625 C-109.9903125 161.49015625 -109.6603125 161.82015625 -109.3203125 162.16015625 C-107.50111034 162.28015228 -105.67726239 162.3303501 -103.85424805 162.35302734 C-102.68600998 162.36909027 -101.51777191 162.3851532 -100.31413269 162.40170288 C-94.96177553 162.44595666 -89.60956765 162.48766778 -84.25708008 162.51025391 C-80.72927681 162.52689162 -77.20240969 162.57165445 -73.67496014 162.62262535 C-70.31070056 162.66438968 -66.94652586 162.67143624 -63.58203125 162.68359375 C-62.31526047 162.70626312 -61.04848969 162.7289325 -59.74333191 162.75228882 C-58.56563736 162.74943878 -57.38794281 162.74658875 -56.17456055 162.74365234 C-55.13833054 162.7517392 -54.10210052 162.75982605 -53.0344696 162.76815796 C-49.37608958 161.9486397 -48.4941177 160.10703621 -46.3203125 157.16015625 C-42.8828125 156.47265625 -42.8828125 156.47265625 -39.3203125 157.16015625 C-36.30110127 159.63112196 -34.55611156 162.45275906 -33.3203125 166.16015625 C-29.73097354 168.44428105 -25.91037265 170.16015625 -21.6328125 170.16015625 C-19.13519189 169.19170174 -19.13519189 169.19170174 -16.6328125 167.09765625 C-12.10328131 164.44830782 -8.44933834 164.10906159 -3.3203125 165.16015625 C1.45545871 167.58428295 5.74186553 171.07337358 7.6796875 176.16015625 C8.2454806 182.00668492 7.66672934 185.95692207 4.6796875 191.16015625 C1.43182388 195.06815475 -1.74490386 197.41717331 -6.8203125 198.22265625 C-12.69379909 198.49235716 -16.71982655 196.54724407 -21.1328125 192.72265625 C-23.96416911 189.40592422 -25.3203125 187.54389154 -25.3203125 183.16015625 C-26.1659375 182.91265625 -27.0115625 182.66515625 -27.8828125 182.41015625 C-31.3203125 181.16015625 -31.3203125 181.16015625 -34.23339844 179.11743164 C-39.50225109 176.07400011 -45.22392476 176.56883477 -51.1484375 176.59375 C-52.98737579 176.58445213 -52.98737579 176.58445213 -54.86346436 176.57496643 C-57.44542651 176.56788239 -60.02743448 176.57101735 -62.609375 176.58374023 C-66.57115744 176.59765922 -70.5306024 176.56344502 -74.4921875 176.52539062 C-77.00260475 176.52443994 -79.51302496 176.52629554 -82.0234375 176.53125 C-83.2109259 176.51799179 -84.39841431 176.50473358 -85.62188721 176.49107361 C-86.72022888 176.50360672 -87.81857056 176.51613983 -88.95019531 176.52905273 C-89.91725403 176.5300145 -90.88431274 176.53097626 -91.88067627 176.53196716 C-94.55173471 176.95281665 -94.55173471 176.95281665 -96.16107178 179.55384827 C-97.93538989 183.54302789 -96.866504 185.83526697 -95.59375 189.87109375 C-88.64958721 207.80663078 -77.54479704 224.09934364 -64.6328125 238.28515625 C-54.57602039 249.55734267 -51.53362701 260.15376129 -51.87890625 274.93359375 C-52.77993199 290.36118803 -61.80733327 303.41723923 -71.62109375 314.7734375 C-79.87060122 322.06786451 -90.58646959 326.33183451 -100.4453125 331.03515625 C-103.26136079 332.38475615 -106.07610805 333.73705375 -108.890625 335.08984375 C-109.93256012 335.58976837 -109.93256012 335.58976837 -110.99554443 336.09979248 C-116.65073206 338.81990346 -122.26407378 341.61926725 -127.87124634 344.43673706 C-132.48777351 346.75338509 -137.12617505 349.00564083 -141.8203125 351.16015625 C-142.46355469 351.45792969 -143.10679687 351.75570313 -143.76953125 352.0625 C-145.28545263 352.76389646 -146.80270874 353.46240739 -148.3203125 354.16015625 C-146.59401349 348.38332325 -144.04769904 343.04878135 -141.5078125 337.59765625 C-138.21058433 330.47230926 -134.93823227 323.33750382 -131.73828125 316.16796875 C-131.44215439 315.50473099 -131.14602753 314.84149323 -130.84092712 314.15815735 C-129.6667986 311.52664397 -128.49362745 308.89471959 -127.32455444 306.26095581 C-126.50989633 304.4257479 -125.69251177 302.591751 -124.875 300.7578125 C-124.40562012 299.70086182 -123.93624023 298.64391113 -123.45263672 297.55493164 C-122.3203125 295.16015625 -122.3203125 295.16015625 -121.3203125 294.16015625 C-120.73670695 290.95032573 -120.54239334 289.26152932 -121.3203125 286.16015625 C-123.21951995 283.55160626 -125.3716236 281.35209695 -127.62109375 279.0390625 C-155.73734489 249.05110723 -170.45321173 204.8546495 -169.5703125 164.1796875 C-168.01759474 124.90369177 -152.40442216 87.39374045 -126.3203125 58.16015625 C-125.69382812 57.4125 -125.06734375 56.66484375 -124.421875 55.89453125 C-96.33067641 22.39610664 -52.25167383 4.28629074 -9.5703125 0.47265625 C-6.38114088 0.28482283 -3.19095822 0.15391681 0 0 Z " fill="#111111" transform="translate(766.3203125,319.83984375)"/>
<path d="M0 0 C2 2 2 2 2.4375 4.875 C2 8 2 8 -0.1875 10.4375 C-3 12 -3 12 -5.625 12 C-8.53961599 10.77279327 -9.58572328 9.82855344 -11 7 C-10.86340503 4.1998031 -10.31153277 2.51922128 -8.875 0.125 C-5.81663109 -1.71002135 -3.34391796 -0.79038061 0 0 Z " fill="#EFEFF0" transform="translate(802,452)"/>
<path d="M0 0 C3 0.875 3 0.875 4.9375 2.625 C6.30108187 5.51258514 6.02147095 6.88916183 5 9.875 C3 11.875 3 11.875 -0.4375 12.1875 C-4 11.875 -4 11.875 -6 10.8125 C-7.63378851 7.64703476 -6.85267564 5.22479714 -6 1.875 C-3 -0.125 -3 -0.125 0 0 Z " fill="#EFEFEF" transform="translate(780,393.125)"/>
<path d="M0 0 C2 3 2 3 1.75 6.0625 C1 9 1 9 -1 11 C-5.05261287 11.34490322 -6.54754176 11.30163882 -10 9 C-10.97868153 6.13923862 -11.22135111 4.61297231 -10.1875 1.75 C-7.51492357 -2.18853369 -4.19160414 -0.89820089 0 0 Z " fill="#F2F2F2" transform="translate(762,496)"/>
<path d="M0 0 C0 3.93169105 -1.39419615 5.16427228 -4 8 C-4.66 8 -5.32 8 -6 8 C-4.55746343 4.63408134 -2.66735273 2.48952921 0 0 Z " fill="#252526" transform="translate(819,597)"/>
</svg>
